<svg width="24" height="28" viewBox="0 0 24 28" fill="none" xmlns="http://www.w3.org/2000/svg">
<g clip-path="url(#clip0_2116_468)">
<path d="M12.2105 28H12.2023C8.1239 27.972 4.98859 26.5944 2.88107 23.9064C1.00863 21.5124 0.0409805 18.1832 0.00817871 14.0112V13.9916C0.0409805 9.8168 1.00863 6.4904 2.88381 4.0964C4.98859 1.4056 8.12663 0.028 12.2023 0H12.2105H12.2187C15.3458 0.0224 17.9617 0.8456 19.9927 2.4472C21.9034 3.9536 23.2483 6.0984 23.989 8.8256L21.6656 9.4892C20.4082 4.8692 17.2264 2.5088 12.2077 2.4724C8.89474 2.4976 6.38813 3.5644 4.75898 5.642C3.23642 7.588 2.44918 10.3992 2.41911 14C2.44918 17.6008 3.23642 20.412 4.76171 22.358C6.39087 24.4384 8.89747 25.5052 12.2105 25.5276C15.1982 25.5052 17.1745 24.7912 18.8173 23.142C20.6925 21.2604 20.6597 18.9504 20.0583 17.5448C19.7057 16.716 19.0633 16.0272 18.1968 15.5036C17.9781 17.08 17.4888 18.3568 16.7344 19.32C15.7257 20.6052 14.2961 21.308 12.4865 21.4088C11.1171 21.4844 9.79679 21.154 8.77447 20.4736C7.56353 19.67 6.85556 18.4436 6.77902 17.0156C6.70522 15.6268 7.24371 14.35 8.29337 13.4204C9.29656 12.5328 10.707 12.012 12.3745 11.914C13.6018 11.844 14.7526 11.9 15.8132 12.0792C15.671 11.214 15.3868 10.5252 14.9603 10.0296C14.3754 9.3464 13.4706 8.9992 12.2733 8.9908C12.2624 8.9908 12.2515 8.9908 12.2405 8.9908C11.2783 8.9908 9.97173 9.2624 9.14075 10.5308L7.13984 9.156C8.2551 7.4592 10.0647 6.524 12.2405 6.524C12.2569 6.524 12.2733 6.524 12.2897 6.524C15.928 6.5464 18.0957 8.8284 18.3116 12.81C18.4346 12.8632 18.5576 12.9192 18.6779 12.9752C20.3754 13.7928 21.6164 15.0304 22.2697 16.5564C23.1772 18.6816 23.2619 22.1452 20.5066 24.9088C18.3991 27.02 15.8433 27.9748 12.2187 28H12.2105ZM13.3531 14.3612C13.077 14.3612 12.7982 14.3696 12.5111 14.3864C10.42 14.5068 9.11615 15.4896 9.18996 16.8868C9.26649 18.3512 10.8437 19.0316 12.3608 18.9476C13.7549 18.872 15.5699 18.3148 15.8761 14.6188C15.1052 14.448 14.2606 14.3612 13.3531 14.3612Z" fill="#7C7C7C"/>
</g>
<defs>
<clipPath id="clip0_2116_468">
<rect width="24" height="28" fill="white"/>
</clipPath>
</defs>
</svg>
